/* XPM */
static char *_645444522727[] = {
/* columns rows colors chars-per-pixel */
"80 80 7 1 ",
"  c #191919",
". c #4D3533",
"X c #63413D",
"o c #704844",
"O c #898989",
"+ c #A4A4A4",
"@ c None",
/* pixels */
"@@@@@@@@@@@@@@@@@@@@@@@@@                          @@@@@@@@@@@@@@@@@@@@@@@@@@@@@",
"@@@@@@@@@@@@@@@@@@@@@@@@@                          @@@@@@@@@@@@@@@@@@@@@@@@@@@@@",
"@@@@@@@@@@@@@@@@@@@@@@@@@                          @@@@@@@@@@@@@@@@@@@@@@@@@@@@@",
"@@@@@@@@@@@@@@@@@@@@@@@@@                          @@@@@@@@@@@@@@@@@@@@@@@@@@@@@",
"@@@@@@@@@@@@@@@@@@@@@@@@@                          @@@@@@@@@@@@@@@@@@@@@@@@@@@@@",
"@@@@@@@@@@@@@@@@@@@@     OOOOOOOOOOOOOOOOOOOO+++++     @@@@@@@@@@@@@@@@@@@@@@@@@",
"@@@@@@@@@@@@@@@@@@@@     OOOOOOOOOOOOOOOOOOOO+++++     @@@@@@@@@@@@@@@@@@@@@@@@@",
"@@@@@@@@@@@@@@@@@@@@     OOOOOOOOOOOOOOOOOOOO+++++     @@@@@@@@@@@@@@@@@@@@@@@@@",
"@@@@@@@@@@@@@@@@@@@@     OOOOOOOOOOOOOOOOOOOO+++++     @@@@@@@@@@@@@@@@@@@@@@@@@",
"@@@@@@@@@@@@@@@@@@@@     OOOOOOOOOOOOOOOOOOOO+++++     @@@@@@@@@@@@@@@@@@@@@@@@@",
"@@@@@@@@@@@@@@@     OOOOO.....XXXXXooooooooooXXXXX+++++     @@@@@@@@@@@@@@@@@@@@",
"@@@@@@@@@@@@@@@     OOOOO.....XXXXXooooooooooXXXXX+++++     @@@@@@@@@@@@@@@@@@@@",
"@@@@@@@@@@@@@@@     OOOOO.....XXXXXooooooooooXXXXX+++++     @@@@@@@@@@@@@@@@@@@@",
"@@@@@@@@@@@@@@@     OOOOO.....XXXXXooooooooooXXXXX+++++     @@@@@@@@@@@@@@@@@@@@",
"@@@@@@@@@@@@@@@     OOOOO.....XXXXXooooooooooXXXXX+++++     @@@@@@@@@@@@@@@@@@@@",
"@@@@@@@@@@     OOOOO.....XXXXXXXXXXooooooooooXXXXXXXXXX+++++     @@@@@@@@@@@@@@@",
"@@@@@@@@@@     OOOOO.....XXXXXXXXXXooooooooooXXXXXXXXXX+++++     @@@@@@@@@@@@@@@",
"@@@@@@@@@@     OOOOO.....XXXXXXXXXXooooooooooXXXXXXXXXX+++++     @@@@@@@@@@@@@@@",
"@@@@@@@@@@     OOOOO.....XXXXXXXXXXooooooooooXXXXXXXXXX+++++     @@@@@@@@@@@@@@@",
"@@@@@@@@@@     OOOOO.....XXXXXXXXXXooooooooooXXXXXXXXXX+++++     @@@@@@@@@@@@@@@",
"@@@@@@@@@@     OOOOO.....XXXXXooooooooooooooooooooXXXXX+++++     @@@@@@@@@@@@@@@",
"@@@@@@@@@@     OOOOO.....XXXXXooooooooooooooooooooXXXXX+++++     @@@@@@@@@@@@@@@",
"@@@@@@@@@@     OOOOO.....XXXXXooooooooooooooooooooXXXXX+++++     @@@@@@@@@@@@@@@",
"@@@@@@@@@@     OOOOO.....XXXXXooooooooooooooooooooXXXXX+++++     @@@@@@@@@@@@@@@",
"@@@@@@@@@@     OOOOO.....XXXXXooooooooooooooooooooXXXXX+++++     @@@@@@@@@@@@@@@",
"@@@@@@@@@@          OOOOO.....XXXXXXXXXXXXXXXXXXXX+++++          @@@@@@@@@@@@@@@",
"@@@@@@@@@@          OOOOO.....XXXXXXXXXXXXXXXXXXXX+++++          @@@@@@@@@@@@@@@",
"@@@@@@@@@@          OOOOO.....XXXXXXXXXXXXXXXXXXXX+++++          @@@@@@@@@@@@@@@",
"@@@@@@@@@@          OOOOO.....XXXXXXXXXXXXXXXXXXXX+++++          @@@@@@@@@@@@@@@",
"@@@@@@@@@@          OOOOO.....XXXXXXXXXXXXXXXXXXXX+++++          @@@@@@@@@@@@@@@",
"@@@@@@@@@@     ..........OOOOOOOOOOOOOOOOOOOO+++++XXXXXXXXXX     @@@@@@@@@@@@@@@",
"@@@@@@@@@@     ..........OOOOOOOOOOOOOOOOOOOO+++++XXXXXXXXXX     @@@@@@@@@@@@@@@",
"@@@@@@@@@@     ..........OOOOOOOOOOOOOOOOOOOO+++++XXXXXXXXXX     @@@@@@@@@@@@@@@",
"@@@@@@@@@@     ..........OOOOOOOOOOOOOOOOOOOO+++++XXXXXXXXXX     @@@@@@@@@@@@@@@",
"@@@@@@@@@@     ..........OOOOOOOOOOOOOOOOOOOO+++++XXXXXXXXXX     @@@@@@@@@@@@@@@",
"@@@@@@@@@@     OOOOO.....ooooooooooXXXXXooooooooooXXXXX+++++     @@@@@@@@@@@@@@@",
"@@@@@@@@@@     OOOOO.....ooooooooooXXXXXooooooooooXXXXX+++++     @@@@@@@@@@@@@@@",
"@@@@@@@@@@     OOOOO.....ooooooooooXXXXXooooooooooXXXXX+++++     @@@@@@@@@@@@@@@",
"@@@@@@@@@@     OOOOO.....ooooooooooXXXXXooooooooooXXXXX+++++     @@@@@@@@@@@@@@@",
"@@@@@@@@@@     OOOOO.....ooooooooooXXXXXooooooooooXXXXX+++++     @@@@@@@@@@@@@@@",
"@@@@@@@@@@     .....OOOOOooooooooooXXXXXoooooooooo+++++XXXXX     @@@@@@@@@@@@@@@",
"@@@@@@@@@@     .....OOOOOooooooooooXXXXXoooooooooo+++++XXXXX     @@@@@@@@@@@@@@@",
"@@@@@@@@@@     .....OOOOOooooooooooXXXXXoooooooooo+++++XXXXX     @@@@@@@@@@@@@@@",
"@@@@@@@@@@     .....OOOOOooooooooooXXXXXoooooooooo+++++XXXXX     @@@@@@@@@@@@@@@",
"@@@@@@@@@@     .....OOOOOooooooooooXXXXXoooooooooo+++++XXXXX     @@@@@@@@@@@@@@@",
"@@@@@@@@@@     ..........OOOOOOOOOOOOOOOOOOOOOOOOOXXXXXXXXXX     @@@@@@@@@@@@@@@",
"@@@@@@@@@@     ..........OOOOOOOOOOOOOOOOOOOOOOOOOXXXXXXXXXX     @@@@@@@@@@@@@@@",
"@@@@@@@@@@     ..........OOOOOOOOOOOOOOOOOOOOOOOOOXXXXXXXXXX     @@@@@@@@@@@@@@@",
"@@@@@@@@@@     ..........OOOOOOOOOOOOOOOOOOOOOOOOOXXXXXXXXXX     @@@@@@@@@@@@@@@",
"@@@@@@@@@@     ..........OOOOOOOOOOOOOOOOOOOOOOOOOXXXXXXXXXX     @@@@@@@@@@@@@@@",
"@@@@@@@@@@     .....oooooooooooooooXXXXXooooooooooXXXXXXXXXX     @@@@@@@@@@@@@@@",
"@@@@@@@@@@     .....oooooooooooooooXXXXXooooooooooXXXXXXXXXX     @@@@@@@@@@@@@@@",
"@@@@@@@@@@     .....oooooooooooooooXXXXXooooooooooXXXXXXXXXX     @@@@@@@@@@@@@@@",
"@@@@@@@@@@     .....oooooooooooooooXXXXXooooooooooXXXXXXXXXX     @@@@@@@@@@@@@@@",
"@@@@@@@@@@     .....oooooooooooooooXXXXXooooooooooXXXXXXXXXX     @@@@@@@@@@@@@@@",
"@@@@@@@@@@@@@@@     .....ooooooooooXXXXXooooooooooXXXXX     @@@@@@@@@@@@@@@@@@@@",
"@@@@@@@@@@@@@@@     .....ooooooooooXXXXXooooooooooXXXXX     @@@@@@@@@@@@@@@@@@@@",
"@@@@@@@@@@@@@@@     .....ooooooooooXXXXXooooooooooXXXXX     @@@@@@@@@@@@@@@@@@@@",
"@@@@@@@@@@@@@@@     .....ooooooooooXXXXXooooooooooXXXXX     @@@@@@@@@@@@@@@@@@@@",
"@@@@@@@@@@@@@@@     .....ooooooooooXXXXXooooooooooXXXXX     @@@@@@@@@@@@@@@@@@@@",
"@@@@@@@@@@@@@@@@@@@@     XXXXXXXXXXXXXXXXXXXXXXXXX     @@@@@@@@@@@@@@@@@@@@@@@@@",
"@@@@@@@@@@@@@@@@@@@@     XXXXXXXXXXXXXXXXXXXXXXXXX     @@@@@@@@@@@@@@@@@@@@@@@@@",
"@@@@@@@@@@@@@@@@@@@@     XXXXXXXXXXXXXXXXXXXXXXXXX     @@@@@@@@@@@@@@@@@@@@@@@@@",
"@@@@@@@@@@@@@@@@@@@@     XXXXXXXXXXXXXXXXXXXXXXXXX     @@@@@@@@@@@@@@@@@@@@@@@@@",
"@@@@@@@@@@@@@@@@@@@@     XXXXXXXXXXXXXXXXXXXXXXXXX     @@@@@@@@@@@@@@@@@@@@@@@@@",
"@@@@@@@@@@@@@@@@@@@@@@@@@                          @@@@@@@@@@@@@@@@@@@@@@@@@@@@@",
"@@@@@@@@@@@@@@@@@@@@@@@@@                          @@@@@@@@@@@@@@@@@@@@@@@@@@@@@",
"@@@@@@@@@@@@@@@@@@@@@@@@@                          @@@@@@@@@@@@@@@@@@@@@@@@@@@@@",
"@@@@@@@@@@@@@@@@@@@@@@@@@                          @@@@@@@@@@@@@@@@@@@@@@@@@@@@@",
"@@@@@@@@@@@@@@@@@@@@@@@@@                          @@@@@@@@@@@@@@@@@@@@@@@@@@@@@",
"@@@@@@@@@@@@@@@@@@@@@@@@@@@@@@@@@@@@@@@@@@@@@@@@@@@@@@@@@@@@@@@@@@@@@@@@@@@@@@@@",
"@@@@@@@@@@@@@@@@@@@@@@@@@@@@@@@@@@@@@@@@@@@@@@@@@@@@@@@@@@@@@@@@@@@@@@@@@@@@@@@@",
"@@@@@@@@@@@@@@@@@@@@@@@@@@@@@@@@@@@@@@@@@@@@@@@@@@@@@@@@@@@@@@@@@@@@@@@@@@@@@@@@",
"@@@@@@@@@@@@@@@@@@@@@@@@@@@@@@@@@@@@@@@@@@@@@@@@@@@@@@@@@@@@@@@@@@@@@@@@@@@@@@@@",
"@@@@@@@@@@@@@@@@@@@@@@@@@@@@@@@@@@@@@@@@@@@@@@@@@@@@@@@@@@@@@@@@@@@@@@@@@@@@@@@@",
"@@@@@@@@@@@@@@@@@@@@@@@@@@@@@@@@@@@@@@@@@@@@@@@@@@@@@@@@@@@@@@@@@@@@@@@@@@@@@@@@",
"@@@@@@@@@@@@@@@@@@@@@@@@@@@@@@@@@@@@@@@@@@@@@@@@@@@@@@@@@@@@@@@@@@@@@@@@@@@@@@@@",
"@@@@@@@@@@@@@@@@@@@@@@@@@@@@@@@@@@@@@@@@@@@@@@@@@@@@@@@@@@@@@@@@@@@@@@@@@@@@@@@@",
"@@@@@@@@@@@@@@@@@@@@@@@@@@@@@@@@@@@@@@@@@@@@@@@@@@@@@@@@@@@@@@@@@@@@@@@@@@@@@@@@",
"@@@@@@@@@@@@@@@@@@@@@@@@@@@@@@@@@@@@@@@@@@@@@@@@@@@@@@@@@@@@@@@@@@@@@@@@@@@@@@@@"
};
