/* XPM */
static char *_645445519641[] = {
/* columns rows colors chars-per-pixel */
"80 80 7 1 ",
"  c black",
". c gray21",
"X c gray27",
"o c gray35",
"O c gray42",
"+ c gray47",
"@ c gray64",
/* pixels */
"                                                                                ",
"                                                                                ",
"                                                                                ",
"                                                                                ",
"                                                                                ",
"     @@@@@@@@@@@@@@@@@@@@@@@@@@@@@@@@@@@@@@@@@@@@@@@@@@@@@@@@@@@@@@@@@@@@@@     ",
"     @@@@@@@@@@@@@@@@@@@@@@@@@@@@@@@@@@@@@@@@@@@@@@@@@@@@@@@@@@@@@@@@@@@@@@     ",
"     @@@@@@@@@@@@@@@@@@@@@@@@@@@@@@@@@@@@@@@@@@@@@@@@@@@@@@@@@@@@@@@@@@@@@@     ",
"     @@@@@@@@@@@@@@@@@@@@@@@@@@@@@@@@@@@@@@@@@@@@@@@@@@@@@@@@@@@@@@@@@@@@@@     ",
"     @@@@@@@@@@@@@@@@@@@@@@@@@@@@@@@@@@@@@@@@@@@@@@@@@@@@@@@@@@@@@@@@@@@@@@     ",
"     @@@@@....................XXXXXXXXXXXXXXXXXXXXXXXXXXXXXXXXXXXXXXXX@@@@@     ",
"     @@@@@....................XXXXXXXXXXXXXXXXXXXXXXXXXXXXXXXXXXXXXXXX@@@@@     ",
"     @@@@@....................XXXXXXXXXXXXXXXXXXXXXXXXXXXXXXXXXXXXXXXX@@@@@     ",
"     @@@@@....................XXXXXXXXXXXXXXXXXXXXXXXXXXXXXXXXXXXXXXXX@@@@@     ",
"     @@@@@....................XXXXXXXXXXXXXXXXXXXXXXXXXXXXXXXXXXXXXXXX@@@@@     ",
"     @@@@@..........XXXXXXXXXXXXXXXXXXXXXXXXXXXXXX+++++++++++++++XXXXX@@@@@     ",
"     @@@@@..........XXXXXXXXXXXXXXXXXXXXXXXXXXXXXX+++++++++++++++XXXXX@@@@@     ",
"     @@@@@..........XXXXXXXXXXXXXXXXXXXXXXXXXXXXXX+++++++++++++++XXXXX@@@@@     ",
"     @@@@@..........XXXXXXXXXXXXXXXXXXXXXXXXXXXXXX+++++++++++++++XXXXX@@@@@     ",
"     @@@@@..........XXXXXXXXXXXXXXXXXXXXXXXXXXXXXX+++++++++++++++XXXXX@@@@@     ",
"     @@@@@.....XXXXXXXXXXXXXXXXXXXXXXXXXXXXXXXXXXX+++++++++++++++XXXXX@@@@@     ",
"     @@@@@.....XXXXXXXXXXXXXXXXXXXXXXXXXXXXXXXXXXX+++++++++++++++XXXXX@@@@@     ",
"     @@@@@.....XXXXXXXXXXXXXXXXXXXXXXXXXXXXXXXXXXX+++++++++++++++XXXXX@@@@@     ",
"     @@@@@.....XXXXXXXXXXXXXXXXXXXXXXXXXXXXXXXXXXX+++++++++++++++XXXXX@@@@@     ",
"     @@@@@.....XXXXXXXXXXXXXXXXXXXXXXXXXXXXXXXXXXX+++++++++++++++XXXXX@@@@@     ",
"     @@@@@.....XXXXXXXXXXXXXXXOOOOOOOOOOOOOOOXXXXX+++++++++++++++XXXXX@@@@@     ",
"     @@@@@.....XXXXXXXXXXXXXXXOOOOOOOOOOOOOOOXXXXX+++++++++++++++XXXXX@@@@@     ",
"     @@@@@.....XXXXXXXXXXXXXXXOOOOOOOOOOOOOOOXXXXX+++++++++++++++XXXXX@@@@@     ",
"     @@@@@.....XXXXXXXXXXXXXXXOOOOOOOOOOOOOOOXXXXX+++++++++++++++XXXXX@@@@@     ",
"     @@@@@.....XXXXXXXXXXXXXXXOOOOOOOOOOOOOOOXXXXX+++++++++++++++XXXXX@@@@@     ",
"     @@@@@.....XXXXXXXXXXXXXXXOOOOOOOOOOOOOOOXXXXX+++++++++++++++XXXXX@@@@@     ",
"     @@@@@.....XXXXXXXXXXXXXXXOOOOOOOOOOOOOOOXXXXX+++++++++++++++XXXXX@@@@@     ",
"     @@@@@.....XXXXXXXXXXXXXXXOOOOOOOOOOOOOOOXXXXX+++++++++++++++XXXXX@@@@@     ",
"     @@@@@.....XXXXXXXXXXXXXXXOOOOOOOOOOOOOOOXXXXX+++++++++++++++XXXXX@@@@@     ",
"     @@@@@.....XXXXXXXXXXXXXXXOOOOOOOOOOOOOOOXXXXX+++++++++++++++XXXXX@@@@@     ",
"     @@@@@oooooooooooooooXXXXXOOOOOOOOOOOOOOOXXXXX+++++++++++++++XXXXX@@@@@     ",
"     @@@@@oooooooooooooooXXXXXOOOOOOOOOOOOOOOXXXXX+++++++++++++++XXXXX@@@@@     ",
"     @@@@@oooooooooooooooXXXXXOOOOOOOOOOOOOOOXXXXX+++++++++++++++XXXXX@@@@@     ",
"     @@@@@oooooooooooooooXXXXXOOOOOOOOOOOOOOOXXXXX+++++++++++++++XXXXX@@@@@     ",
"     @@@@@oooooooooooooooXXXXXOOOOOOOOOOOOOOOXXXXX+++++++++++++++XXXXX@@@@@     ",
"     @@@@@oooooooooooooooXXXXXOOOOOOOOOOOOOOOXXXXX+++++++++++++++XXXXX@@@@@     ",
"     @@@@@oooooooooooooooXXXXXOOOOOOOOOOOOOOOXXXXX+++++++++++++++XXXXX@@@@@     ",
"     @@@@@oooooooooooooooXXXXXOOOOOOOOOOOOOOOXXXXX+++++++++++++++XXXXX@@@@@     ",
"     @@@@@oooooooooooooooXXXXXOOOOOOOOOOOOOOOXXXXX+++++++++++++++XXXXX@@@@@     ",
"     @@@@@oooooooooooooooXXXXXOOOOOOOOOOOOOOOXXXXX+++++++++++++++XXXXX@@@@@     ",
"     @@@@@oooooooooooooooXXXXXOOOOOOOOOOOOOOOXXXXX+++++++++++++++XXXXX@@@@@     ",
"     @@@@@oooooooooooooooXXXXXOOOOOOOOOOOOOOOXXXXX+++++++++++++++XXXXX@@@@@     ",
"     @@@@@oooooooooooooooXXXXXOOOOOOOOOOOOOOOXXXXX+++++++++++++++XXXXX@@@@@     ",
"     @@@@@oooooooooooooooXXXXXOOOOOOOOOOOOOOOXXXXX+++++++++++++++XXXXX@@@@@     ",
"     @@@@@oooooooooooooooXXXXXOOOOOOOOOOOOOOOXXXXX+++++++++++++++XXXXX@@@@@     ",
"     @@@@@oooooooooooooooXXXXXOOOOOOOOOOOOOOOXXXXX+++++++++++++++XXXXX@@@@@     ",
"     @@@@@oooooooooooooooXXXXXOOOOOOOOOOOOOOOXXXXX+++++++++++++++XXXXX@@@@@     ",
"     @@@@@oooooooooooooooXXXXXOOOOOOOOOOOOOOOXXXXX+++++++++++++++XXXXX@@@@@     ",
"     @@@@@oooooooooooooooXXXXXOOOOOOOOOOOOOOOXXXXX+++++++++++++++XXXXX@@@@@     ",
"     @@@@@oooooooooooooooXXXXXOOOOOOOOOOOOOOOXXXXX+++++++++++++++XXXXX@@@@@     ",
"     @@@@@oooooooooooooooXXXXXOOOOOOOOOOOOOOOXXXXX+++++++++++++++XXXXX@@@@@     ",
"     @@@@@oooooooooooooooXXXXXOOOOOOOOOOOOOOOXXXXX+++++++++++++++XXXXX@@@@@     ",
"     @@@@@oooooooooooooooXXXXXOOOOOOOOOOOOOOOXXXXX+++++++++++++++XXXXX@@@@@     ",
"     @@@@@oooooooooooooooXXXXXOOOOOOOOOOOOOOOXXXXX+++++++++++++++XXXXX@@@@@     ",
"     @@@@@oooooooooooooooXXXXXOOOOOOOOOOOOOOOXXXXX+++++++++++++++XXXXX@@@@@     ",
"     @@@@@oooooooooooooooXXXXXOOOOOOOOOOOOOOOXXXXX+++++++++++++++XXXXX@@@@@     ",
"     @@@@@oooooooooooooooXXXXXOOOOOOOOOOOOOOOXXXXX+++++++++++++++XXXXX@@@@@     ",
"     @@@@@oooooooooooooooXXXXXOOOOOOOOOOOOOOOXXXXX+++++++++++++++XXXXX@@@@@     ",
"     @@@@@oooooooooooooooXXXXXOOOOOOOOOOOOOOOXXXXX+++++++++++++++XXXXX@@@@@     ",
"     @@@@@oooooooooooooooXXXXXOOOOOOOOOOOOOOOXXXXX+++++++++++++++XXXXX@@@@@     ",
"     @@@@@oooooooooooooooXXXXXOOOOOOOOOOOOOOOXXXXX+++++++++++++++XXXXX@@@@@     ",
"     @@@@@oooooooooooooooXXXXXOOOOOOOOOOOOOOOXXXXX+++++++++++++++XXXXX@@@@@     ",
"     @@@@@oooooooooooooooXXXXXOOOOOOOOOOOOOOOXXXXX+++++++++++++++XXXXX@@@@@     ",
"     @@@@@oooooooooooooooXXXXXOOOOOOOOOOOOOOOXXXXX+++++++++++++++XXXXX@@@@@     ",
"     @@@@@oooooooooooooooXXXXXOOOOOOOOOOOOOOOXXXXX+++++++++++++++XXXXX@@@@@     ",
"     @@@@@@@@@@@@@@@@@@@@@@@@@@@@@@@@@@@@@@@@@@@@@@@@@@@@@@@@@@@@@@@@@@@@@@     ",
"     @@@@@@@@@@@@@@@@@@@@@@@@@@@@@@@@@@@@@@@@@@@@@@@@@@@@@@@@@@@@@@@@@@@@@@     ",
"     @@@@@@@@@@@@@@@@@@@@@@@@@@@@@@@@@@@@@@@@@@@@@@@@@@@@@@@@@@@@@@@@@@@@@@     ",
"     @@@@@@@@@@@@@@@@@@@@@@@@@@@@@@@@@@@@@@@@@@@@@@@@@@@@@@@@@@@@@@@@@@@@@@     ",
"     @@@@@@@@@@@@@@@@@@@@@@@@@@@@@@@@@@@@@@@@@@@@@@@@@@@@@@@@@@@@@@@@@@@@@@     ",
"                                                                                ",
"                                                                                ",
"                                                                                ",
"                                                                                ",
"                                                                                "
};
