/* XPM */
static char *_645440214101[] = {
/* columns rows colors chars-per-pixel */
"80 80 6 1 ",
"  c #59413E",
". c #514047",
"X c #77514C",
"o c #8D5D57",
"g c #37773F",,
"G c #62B76D",
/* pixels */
".....XXXXXXXXXXXXXXXXXXXXXXXXX...............XXXXXXXXXXXXXXXXXXXXXXXXX..........",
".....XXXXXXXXXXXXXXXXXXXXXXXXX...............XXXXXXXXXXXXXXXXXXXXXXXXX..........",
".....XXXXXXXXXXXXXXXXXXXXXXXXX...............XXXXXXXXXXXXXXXXXXXXXXXXX..........",
".....XXXXXXXXXXXXXXXXXXXXXXXXX...............XXXXXXXXXXXXXXXXXXXXXXXXX..........",
".....XXXXXXXXXXXXXXXXXXXXXXXXX...............XXXXXXXXXXXXXXXXXXXXXXXXX..........",
"XXXXXXXXXXXXXXXXXXXXXXXXXXXXXXooooo.....XXXXXXXXXXXXXXXXXXXXXXXXXXXXXXooooo.....",
"XXXXXXXXXXXXXXXXXXXXXXXXXXXXXXooooo.....XXXXXXXXXXXXXXXXXXXXXXXXXXXXXXooooo.....",
"XXXXXXXXXXXXXXXXXXXXXXXXXXXXXXooooo.....XXXXXXXXXXXXXXXXXXXXXXXXXXXXXXooooo.....",
"XXXXXXXXXXXXXXXXXXXXXXXXXXXXXXooooo.....XXXXXXXXXXXXXXXXXXXXXXXXXXXXXXooooo.....",
"XXXXXXXXXXXXXXXXXXXXXXXXXXXXXXooooo.....XXXXXXXXXXXXXXXXXXXXXXXXXXXXXXooooo.....",
"XXXXXXXXXXXXXXXXXXXXXXXXXXXXXXooooo.....GGGGGXXXXXXXXXXGGGGGGGGGGXXXXXooooo.....",
"XXXXXXXXXXXXXXXXXXXXXXXXXXXXXXooooo.....GGGGGXXXXXXXXXXGGGGGGGGGGXXXXXooooo.....",
"XXXXXXXXXXXXXXXXXXXXXXXXXXXXXXooooo.....GGGGGXXXXXXXXXXGGGGGGGGGGXXXXXooooo.....",
"XXXXXXXXXXXXXXXXXXXXXXXXXXXXXXooooo.....GGGGGXXXXXXXXXXGGGGGGGGGGXXXXXooooo.....",
"XXXXXXXXXXXXXXXXXXXXXXXXXXXXXXooooo.....GGGGGXXXXXXXXXXGGGGGGGGGGXXXXXooooo.....",
"XXXXXXXXXXXXXXXXXXXXXXXXXXXXXXooooogggggGGGGGGGGGGGGGGGGGGGGXXXXXXXXXXooooo.....",
"XXXXXXXXXXXXXXXXXXXXXXXXXXXXXXooooogggggGGGGGGGGGGGGGGGGGGGGXXXXXXXXXXooooo.....",
"XXXXXXXXXXXXXXXXXXXXXXXXXXXXXXooooogggggGGGGGGGGGGGGGGGGGGGGXXXXXXXXXXooooo.....",
"XXXXXGGGGGXXXXXXXXXXXXXXXXXXXXooooogggggGGGGGGGGGGGGGGGGGGGGXXXXXXXXXXooooo.....",
"XXXXXGGGGGXXXXXXXXXXXXXXXXXXXXooooogggggGGGGGGGGGGGGGGGGGGGGXXXXXXXXXXooooo.....",
"XXXXXGGGGGXXXXXXXXXXXXXXXXXXXXooooogggggXXXXXXXXXXXXXXXXXXXXXXXXXXXXXXooooo.....",
"XXXXXGGGGGXXXXXXXXXXXXXXXXXXXXooooogggggXXXXXXXXXXXXXXXXXXXXXXXXXXXXXXooooo.....",
"XXXXXGGGGGXXXXXXXXXXXXXXXXXXXXooooogggggXXXXXXXXXXXXXXXXXXXXXXXXXXXXXXooooo.....",
"XXXXXGGGGGGGGGGXXXXXXXXXXXXXXXooooogggggXXXXXXXXXXXXXXXXXXXXXXXXXXXXXXooooo.....",
"XXXXXGGGGGGGGGGXXXXXXXXXXXXXXXooooogggggXXXXXXXXXXXGGGGGXXXXXXXXXXXXXXooooo.....",
"XXXXXGGGGGGGGGGXXXXXXXXXXXooooooooo.....XXXXXXXXXXXGGGGGXXXXXXXXXXooooooooo.....",
"XXXXXGGGGGGGGGGXXXXXXXXXXXooooooooo.....XXXXXXXXXXXGGGGGXXXXXXXXXXooooooooo.....",
"XXXXXGGGGGGGGGGXXXXXXXXXXXooooooooo.....XXXXXXXXXXXGGGGGXXXXXXXXXXooooooooo.....",
"XXXXXXXXXXXXXXXXXXXXXXXXXXooooooooo.....XXXXXXXXXXXGGGGGXXXXXXXXXXooooooooo.....",
"XXXXXXXXXXXXXXXXXXXXXXXXXXooooooooo.....XXXXXXXXXXXXXXXXXXXXXXXXXXooooooooo.....",
"     ooooooooooooooooooooooooo     .....     ooooooooooooooooooooooooo     .....",
"     ooooooooooooooooooooooooo     .....     ooooooooooooooooooooooooo     .....",
"     ooooooooooooooooooooooooo     .....     ooooooooooooooooooooooooo     .....",
"     ooooooooooooooooooooooooo     .....     ooooooooooooooooooooooooo     .....",
"     ooooooooooooooooooooooooo     .....     ooooooooooooooooooooooooo     .....",
".....                          ...............                        ..........",
".....                          ...............                        ..........",
".....                          ...............                        ..........",
".....                          ...............                        ..........",
".....                          ...............                        ..........",
".....XXXXXXXXXXXXXXXXXXXXXXXXX...............XXXXXXXXXXXXXXXXXXXXXXXXX..........",
".....XXXXXXXXXXXXXXXXXXXXXXXXX...............XXXXXXXXXXXXXXXXXXXXXXXXX..........",
".....XXXXXXXXXXXXXXXXXXXXXXXXX...............XXXXXXXXXXXXXXXXXXXXXXXXX..........",
".....XXXXXXXXXXXXXXXXXXXXXXXXX...............XXXXXXXXXXXXXXXXXXXXXXXXX..........",
".....XXXXXXXXXXXXXXXXXXXXXXXXX...............XXXXXXXXXXXXXXXXXXXXXXXXX..........",
"XXXXXXXXXXXXXXXXXXXXXXXXXXXXXXooooo.....XXXXXXXXXXXGGGGGGGGGGXXXXXXXXXooooo.....",
"XXXXXXXXXXXXXXXXXXXXXXXXXXXXXXooooo.....XXXXXXXXXXXGGGGGGGGGGXXXXXXXXXooooo.....",
"XXXXXXXXXXXXXXXXXXXXXXXXXXXXXXooooo.....XXXXXXXXXXXGGGGGGGGGGXXXXXXXXXooooo.....",
"XXXXXXXXXXXXXXXXXXXXXXXXXXXXXXooooo.....XXXXXXXXXXXGGGGGGGGGGXXXXXXXXXooooo.....",
"XXXXXXXXXXXGGGGGXXXXXXXXXXXXXXooooo.....XXXXXXXXXXXGGGGGGGGGGXXXXXXXXXooooo.....",
"XXXXXXXXXXXGGGGGXXXXXXXXXXXXXXooooo.....XXXXXXXXXXXGGGGGGGGGGXXXXXXXXXooooo.....",
"XXXXXXXXXXXGGGGGXXXXXXXXXXXXXXooooo.....XXXXXXXXXXXGGGGGGGGGGXXXXXXXXXooooo.....",
"XXXXXXXXXXXGGGGGXXXXXXXXXXXXXXooooo.....XXXXXXXXXXXGGGGGGGGGGXXXXXXXXXooooo.....",
"XXXXXXXXXXXGGGGGXXXXXXXXXXXXXXooooo.....XXXXXXXXXXXGGGGGGGGGGXXXXXXXXXooooo.....",
"XXXXXXGGGGGGGGGGGGGGGXXXXXXXXXooooo.....XXXXXXXXXXXGGGGGGGGGGXXXXXXXXXooooo.....",
"XXXXXXGGGGGGGGGGGGGGGXXXXXXXXXooooo.....XXXXXXXXXXXGGGGGXXXXXXXXXXXXXXooooo.....",
"XXXXXXGGGGGGGGGGGGGGGXXXXXXXXXooooo.....XXXXXXXXXXXGGGGGXXXXXXXXXXXXXXooooo.....",
"XXXXXXGGGGGGGGGGGGGGGXXXXXXXXXooooo.....XXXXXXXXXXXGGGGGXXXXXXXXXXXXXXooooo.....",
"XXXXXXGGGGGGGGGGGGGGGXXXXXXXXXooooo.....XXXXXXXXXXXGGGGGXXXXXXXXXXXXXXooooo.....",
"XXXXXXXXXXXGGGGGGGGGGXXXXXXXXXooooo.....XXXXXXXXXXXGGGGGXXXXXXXXXXXXXXooooo.....",
"XXXXXXXXXXXGGGGGGGGGGXXXXXXXXXooooo.....XXXXXXXXXXXXXXXXXXXXXXXXXXXXXXooooo.....",
"XXXXXXXXXXXGGGGGGGGGGXXXXXXXXXooooo.....XXXXXXXXXXXXXXXXXXXXXXXXXXXXXXooooo.....",
"XXXXXXXXXXXGGGGGGGGGGXXXXXXXXXooooo.....XXXXXXXXXXXXXXXXXXXXXXXXXXXXXXooooo.....",
"XXXXXXXXXXXXXXXXXXXXXXXXXXXXXXooooo.....XXXXXXXXXXXXXXXXXXXXXXXXXXXXXXooooo.....",
"XXXXXXXXXXXXXXXXXXXXXXXXXXXXXXooooo.....XXXXXXXXXXXXXXXXXXXXXXXXXXXXXXooooo.....",
"XXXXXXXXXXXXXXXXXXXXXXXXXXooooooooo.....XXXXXXXXXXXXXXXXXXXXXXXXXXooooooooo.....",
"XXXXXXXXXXXXXXXXXXXXXXXXXXooooooooo.....XXXXXXXXXXXXXXXXXXXXXXXXXXooooooooo.....",
"XXXXXXXXXXXXXXXXXXXXXXXXXXooooooooo.....XXXXXXXXXXXXXXXXXXXXXXXXXXooooooooo.....",
"XXXXXXXXXXXXXXXXXXXXXXXXXXooooooooo.....XXXXXXXXXXXXXXXXXXXXXXXXXXooooooooo.....",
"XXXXXXXXXXXXXXXXXXXXXXXXXXooooooooo.....XXXXXXXXXXXXXXXXXXXXXXXXXXooooooooo.....",
"     ooooooooooooooooooooooooo     .....     ooooooooooooooooooooooooo     .....",
"     ooooooooooooooooooooooooo     .....     ooooooooooooooooooooooooo     .....",
"     ooooooooooooooooooooooooo     .....     ooooooooooooooooooooooooo     .....",
"     ooooooooooooooooooooooooo     .....     ooooooooooooooooooooooooo     .....",
"     ooooooooooooooooooooooooo     .....     ooooooooooooooooooooooooo     .....",
".....                          ...............                        ..........",
".....                          ...............                        ..........",
".....                          ...............                        ..........",
".....                          ...............                        ..........",
".....                          ...............                        ..........",
};
