/* XPM */
static char *_645440214101[] = {
/* columns rows colors chars-per-pixel */
"80 80 4 1 ",
"  c #59413E",
". c #514047",
"X c #77514C",
"o c #8D5D57",
/* pixels */
".....XXXXXXXXXXXXXXXXXXXXXXXXX...............XXXXXXXXXXXXXXXXXXXXXXXXX..........",
".....XXXXXXXXXXXXXXXXXXXXXXXXX...............XXXXXXXXXXXXXXXXXXXXXXXXX..........",
".....XXXXXXXXXXXXXXXXXXXXXXXXX...............XXXXXXXXXXXXXXXXXXXXXXXXX..........",
".....XXXXXXXXXXXXXXXXXXXXXXXXX...............XXXXXXXXXXXXXXXXXXXXXXXXX..........",
".....XXXXXXXXXXXXXXXXXXXXXXXXX...............XXXXXXXXXXXXXXXXXXXXXXXXX..........",
"XXXXXXXXXXXXXXXXXXXXXXXXXXXXXXooooo.....XXXXXXXXXXXXXXXXXXXXXXXXXXXXXXooooo.....",
"XXXXXXXXXXXXXXXXXXXXXXXXXXXXXXooooo.....XXXXXXXXXXXXXXXXXXXXXXXXXXXXXXooooo.....",
"XXXXXXXXXXXXXXXXXXXXXXXXXXXXXXooooo.....XXXXXXXXXXXXXXXXXXXXXXXXXXXXXXooooo.....",
"XXXXXXXXXXXXXXXXXXXXXXXXXXXXXXooooo.....XXXXXXXXXXXXXXXXXXXXXXXXXXXXXXooooo.....",
"XXXXXXXXXXXXXXXXXXXXXXXXXXXXXXooooo.....XXXXXXXXXXXXXXXXXXXXXXXXXXXXXXooooo.....",
"XXXXXXXXXXXXXXXXXXXXXXXXXXXXXXooooo.....XXXXXXXXXXXXXXXXXXXXXXXXXXXXXXooooo.....",
"XXXXXXXXXXXXXXXXXXXXXXXXXXXXXXooooo.....XXXXXXXXXXXXXXXXXXXXXXXXXXXXXXooooo.....",
"XXXXXXXXXXXXXXXXXXXXXXXXXXXXXXooooo.....XXXXXXXXXXXXXXXXXXXXXXXXXXXXXXooooo.....",
"XXXXXXXXXXXXXXXXXXXXXXXXXXXXXXooooo.....XXXXXXXXXXXXXXXXXXXXXXXXXXXXXXooooo.....",
"XXXXXXXXXXXXXXXXXXXXXXXXXXXXXXooooo.....XXXXXXXXXXXXXXXXXXXXXXXXXXXXXXooooo.....",
"XXXXXXXXXXXXXXXXXXXXXXXXXXXXXXooooo.....XXXXXXXXXXXXXXXXXXXXXXXXXXXXXXooooo.....",
"XXXXXXXXXXXXXXXXXXXXXXXXXXXXXXooooo.....XXXXXXXXXXXXXXXXXXXXXXXXXXXXXXooooo.....",
"XXXXXXXXXXXXXXXXXXXXXXXXXXXXXXooooo.....XXXXXXXXXXXXXXXXXXXXXXXXXXXXXXooooo.....",
"XXXXXXXXXXXXXXXXXXXXXXXXXXXXXXooooo.....XXXXXXXXXXXXXXXXXXXXXXXXXXXXXXooooo.....",
"XXXXXXXXXXXXXXXXXXXXXXXXXXXXXXooooo.....XXXXXXXXXXXXXXXXXXXXXXXXXXXXXXooooo.....",
"XXXXXXXXXXXXXXXXXXXXXXXXXXXXXXooooo.....XXXXXXXXXXXXXXXXXXXXXXXXXXXXXXooooo.....",
"XXXXXXXXXXXXXXXXXXXXXXXXXXXXXXooooo.....XXXXXXXXXXXXXXXXXXXXXXXXXXXXXXooooo.....",
"XXXXXXXXXXXXXXXXXXXXXXXXXXXXXXooooo.....XXXXXXXXXXXXXXXXXXXXXXXXXXXXXXooooo.....",
"XXXXXXXXXXXXXXXXXXXXXXXXXXXXXXooooo.....XXXXXXXXXXXXXXXXXXXXXXXXXXXXXXooooo.....",
"XXXXXXXXXXXXXXXXXXXXXXXXXXXXXXooooo.....XXXXXXXXXXXXXXXXXXXXXXXXXXXXXXooooo.....",
"XXXXXXXXXXXXXXXXXXXXXXXXXXooooooooo.....XXXXXXXXXXXXXXXXXXXXXXXXXXooooooooo.....",
"XXXXXXXXXXXXXXXXXXXXXXXXXXooooooooo.....XXXXXXXXXXXXXXXXXXXXXXXXXXooooooooo.....",
"XXXXXXXXXXXXXXXXXXXXXXXXXXooooooooo.....XXXXXXXXXXXXXXXXXXXXXXXXXXooooooooo.....",
"XXXXXXXXXXXXXXXXXXXXXXXXXXooooooooo.....XXXXXXXXXXXXXXXXXXXXXXXXXXooooooooo.....",
"XXXXXXXXXXXXXXXXXXXXXXXXXXooooooooo.....XXXXXXXXXXXXXXXXXXXXXXXXXXooooooooo.....",
"     ooooooooooooooooooooooooo     .....     ooooooooooooooooooooooooo     .....",
"     ooooooooooooooooooooooooo     .....     ooooooooooooooooooooooooo     .....",
"     ooooooooooooooooooooooooo     .....     ooooooooooooooooooooooooo     .....",
"     ooooooooooooooooooooooooo     .....     ooooooooooooooooooooooooo     .....",
"     ooooooooooooooooooooooooo     .....     ooooooooooooooooooooooooo     .....",
".....                          ...............                        ..........",
".....                          ...............                        ..........",
".....                          ...............                        ..........",
".....                          ...............                        ..........",
".....                          ...............                        ..........",
".....XXXXXXXXXXXXXXXXXXXXXXXXX...............XXXXXXXXXXXXXXXXXXXXXXXXX..........",
".....XXXXXXXXXXXXXXXXXXXXXXXXX...............XXXXXXXXXXXXXXXXXXXXXXXXX..........",
".....XXXXXXXXXXXXXXXXXXXXXXXXX...............XXXXXXXXXXXXXXXXXXXXXXXXX..........",
".....XXXXXXXXXXXXXXXXXXXXXXXXX...............XXXXXXXXXXXXXXXXXXXXXXXXX..........",
".....XXXXXXXXXXXXXXXXXXXXXXXXX...............XXXXXXXXXXXXXXXXXXXXXXXXX..........",
"XXXXXXXXXXXXXXXXXXXXXXXXXXXXXXooooo.....XXXXXXXXXXXXXXXXXXXXXXXXXXXXXXooooo.....",
"XXXXXXXXXXXXXXXXXXXXXXXXXXXXXXooooo.....XXXXXXXXXXXXXXXXXXXXXXXXXXXXXXooooo.....",
"XXXXXXXXXXXXXXXXXXXXXXXXXXXXXXooooo.....XXXXXXXXXXXXXXXXXXXXXXXXXXXXXXooooo.....",
"XXXXXXXXXXXXXXXXXXXXXXXXXXXXXXooooo.....XXXXXXXXXXXXXXXXXXXXXXXXXXXXXXooooo.....",
"XXXXXXXXXXXXXXXXXXXXXXXXXXXXXXooooo.....XXXXXXXXXXXXXXXXXXXXXXXXXXXXXXooooo.....",
"XXXXXXXXXXXXXXXXXXXXXXXXXXXXXXooooo.....XXXXXXXXXXXXXXXXXXXXXXXXXXXXXXooooo.....",
"XXXXXXXXXXXXXXXXXXXXXXXXXXXXXXooooo.....XXXXXXXXXXXXXXXXXXXXXXXXXXXXXXooooo.....",
"XXXXXXXXXXXXXXXXXXXXXXXXXXXXXXooooo.....XXXXXXXXXXXXXXXXXXXXXXXXXXXXXXooooo.....",
"XXXXXXXXXXXXXXXXXXXXXXXXXXXXXXooooo.....XXXXXXXXXXXXXXXXXXXXXXXXXXXXXXooooo.....",
"XXXXXXXXXXXXXXXXXXXXXXXXXXXXXXooooo.....XXXXXXXXXXXXXXXXXXXXXXXXXXXXXXooooo.....",
"XXXXXXXXXXXXXXXXXXXXXXXXXXXXXXooooo.....XXXXXXXXXXXXXXXXXXXXXXXXXXXXXXooooo.....",
"XXXXXXXXXXXXXXXXXXXXXXXXXXXXXXooooo.....XXXXXXXXXXXXXXXXXXXXXXXXXXXXXXooooo.....",
"XXXXXXXXXXXXXXXXXXXXXXXXXXXXXXooooo.....XXXXXXXXXXXXXXXXXXXXXXXXXXXXXXooooo.....",
"XXXXXXXXXXXXXXXXXXXXXXXXXXXXXXooooo.....XXXXXXXXXXXXXXXXXXXXXXXXXXXXXXooooo.....",
"XXXXXXXXXXXXXXXXXXXXXXXXXXXXXXooooo.....XXXXXXXXXXXXXXXXXXXXXXXXXXXXXXooooo.....",
"XXXXXXXXXXXXXXXXXXXXXXXXXXXXXXooooo.....XXXXXXXXXXXXXXXXXXXXXXXXXXXXXXooooo.....",
"XXXXXXXXXXXXXXXXXXXXXXXXXXXXXXooooo.....XXXXXXXXXXXXXXXXXXXXXXXXXXXXXXooooo.....",
"XXXXXXXXXXXXXXXXXXXXXXXXXXXXXXooooo.....XXXXXXXXXXXXXXXXXXXXXXXXXXXXXXooooo.....",
"XXXXXXXXXXXXXXXXXXXXXXXXXXXXXXooooo.....XXXXXXXXXXXXXXXXXXXXXXXXXXXXXXooooo.....",
"XXXXXXXXXXXXXXXXXXXXXXXXXXXXXXooooo.....XXXXXXXXXXXXXXXXXXXXXXXXXXXXXXooooo.....",
"XXXXXXXXXXXXXXXXXXXXXXXXXXooooooooo.....XXXXXXXXXXXXXXXXXXXXXXXXXXooooooooo.....",
"XXXXXXXXXXXXXXXXXXXXXXXXXXooooooooo.....XXXXXXXXXXXXXXXXXXXXXXXXXXooooooooo.....",
"XXXXXXXXXXXXXXXXXXXXXXXXXXooooooooo.....XXXXXXXXXXXXXXXXXXXXXXXXXXooooooooo.....",
"XXXXXXXXXXXXXXXXXXXXXXXXXXooooooooo.....XXXXXXXXXXXXXXXXXXXXXXXXXXooooooooo.....",
"XXXXXXXXXXXXXXXXXXXXXXXXXXooooooooo.....XXXXXXXXXXXXXXXXXXXXXXXXXXooooooooo.....",
"     ooooooooooooooooooooooooo     .....     ooooooooooooooooooooooooo     .....",
"     ooooooooooooooooooooooooo     .....     ooooooooooooooooooooooooo     .....",
"     ooooooooooooooooooooooooo     .....     ooooooooooooooooooooooooo     .....",
"     ooooooooooooooooooooooooo     .....     ooooooooooooooooooooooooo     .....",
"     ooooooooooooooooooooooooo     .....     ooooooooooooooooooooooooo     .....",
".....                          ...............                        ..........",
".....                          ...............                        ..........",
".....                          ...............                        ..........",
".....                          ...............                        ..........",
".....                          ...............                        ..........",
};
