/* XPM */
static char *_645614048252[] = {
/* columns rows colors chars-per-pixel */
"80 80 12 1 ",
"  c #060608",
". c #AC3232",
"X c #DF7126",
"o c #847E87",
"O c #9BADB7",
"+ c white",
"@ c None",
"- c black",
", c #663931",
"x c #8F563B",
"p c #5FCDE4",
"P c #CBDBFC",
/* pixels */
"@@@@@@@@@@@@@@@@@@@@@@@@@@@@@@@@@@@@@@@@               @@@@@@@@@@@@@@@@@@@@@@@@@",
"@@@@@@@@@@@@@@@@@@@@@@@@@@@@@@@@@@@@@@@@               @@@@@@@@@@@@@@@@@@@@@@@@@",
"@@@@@@@@@@@@@@@@@@@@@@@@@@@@@@@@@@@@@@@@               @@@@@@@@@@@@@@@@@@@@@@@@@",
"@@@@@@@@@@@@@@@@@@@@@@@@@@@@@@@@@@@@@@@@               @@@@@@@@@@@@@@@@@@@@@@@@@",
"@@@@@@@@@@@@@@@@@@@@@@@@@@@@@@@@@@@@@@@@               @@@@@@@@@@@@@@@@@@@@@@@@@",
"@@@@@@@@@@@@@@@@@@@@@@@@@@@@@@@@@@@     ..........     @@@@@@@@@@@@@@@@@@@@@@@@@",
"@@@@@@@@@@@@@@@@@@@@@@@@@@@@@@@@@@@     ..........     @@@@@@@@@@@@@@@@@@@@@@@@@",
"@@@@@@@@@@@@@@@@@@@@@@@@@@@@@@@@@@@     ..........     @@@@@@@@@@@@@@@@@@@@@@@@@",
"@@@@@@@@@@@@@@@@@@@@@@@@@@@@@@@@@@@     ..........     @@@@@@@@@@@@@@@@@@@@@@@@@",
"@@@@@@@@@@@@@@@@@@@@@@@@@@@@@@@@@@@     ..........     @@@@@@@@@@@@@@@@@@@@@@@@@",
"@@@@@@@@@@@@@@@@@@@@                    ooooo     @@@@@@@@@@@@@@@@@@@@@@@@@@@@@@",
"@@@@@@@@@@@@@@@@@@@@                    ooooo     @@@@@@@@@@@@@@@@@@@@@@@@@@@@@@",
"@@@@@@@@@@@@@@@@@@@@                    ooooo     @@@@@@@@@@@@@@@@@@@@@@@@@@@@@@",
"@@@@@@@@@@@@@@@@@@@@                    ooooo     @@@@@@@@@@@@@@@@@@@@@@@@@@@@@@",
"@@@@@@@@@@@@@@@@@@@@                    ooooo     @@@@@@@@@@@@@@@@@@@@@@@@@@@@@@",
"@@@@@@@@@@@@@@@     OOOOOOOOOOOOOOOOOOOOoooooooooo     @@@@@@@@@@@@@@@@@@@@@@@@@",
"@@@@@@@@@@@@@@@     OOOOOOOOOOOOOOOOOOOOoooooooooo     @@@@@@@@@@@@@@@@@@@@@@@@@",
"@@@@@@@@@@@@@@@     OOOOOOOOOOOOOOOOOOOOoooooooooo     @@@@@@@@@@@@@@@@@@@@@@@@@",
"@@@@@@@@@@@@@@@     OOOOOOOOOOOOOOOOOOOOoooooooooo     @@@@@@@@@@@@@@@@@@@@@@@@@",
"@@@@@@@@@@@@@@@     OOOOOOOOOOOOOOOOOOOOoooooooooo     @@@@@@@@@@@@@@@@@@@@@@@@@",
"@@@@@@@@@@@@@@@     OOOOOOOOOOOOOOOOOOOOOOOOOOOOOOooooo     @@@@@@@@@@@@@@@@@@@@",
"@@@@@@@@@@@@@@@     OOOOOOOOOOOOOOOOOOOOOOOOOOOOOOooooo     @@@@@@@@@@@@@@@@@@@@",
"@@@@@@@@@@@@@@@     OOOOOOOOOOOOOOOOOOOOOOOOOOOOOOooooo     @@@@@@@@@@@@@@@@@@@@",
"@@@@@@@@@@@@@@@     OOOOOOOOOOOOOOOOOOOOOOOOOOOOOOooooo     @@@@@@@@@@@@@@@@@@@@",
"@@@@@@@@@@@@@@@     OOOOOOOOOOOOOOOOOOOOOOOOOOOOOOooooo     @@@@@@@@@@@@@@@@@@@@",
"@@@@@@@@@@@@@@@     +++++++++++++++++++++++++OOOOOOOOOO     @@@@@@@@@@@@@@@@@@@@",
"@@@@@@@@@@@@@@@     +++++++++++++++++++++++++OOOOOOOOOO     @@@@@@@@@@@@@@@@@@@@",
"@@@@@@@@@@@@@@@     +++++++++++++++++++++++++OOOOOOOOOO     @@@@@@@@@@@@@@@@@@@@",
"@@@@@@@@@@@@@@@     +++++++++++++++++++++++++OOOOOOOOOO     @@@@@@@@@@@@@@@@@@@@",
"@@@@@@@@@@@@@@@     +++++++++++++++++++++++++OOOOOOOOOO     @@@@@@@@@@@@@@@@@@@@",
"@@@@@@@@@@@@@@@                         +++++OOOOOOOOOO     @@@@@@@@@@@@@@@@@@@@",
"@@@@@@@@@@@@@@@                         +++++OOOOOOOOOO     @@@@@@@@@@@@@@@@@@@@",
"@@@@@@@@@@@@@@@                         +++++OOOOOOOOOO     @@@@@@@@@@@@@@@@@@@@",
"@@@@@@@@@@@@@@@                         +++++OOOOOOOOOO     @@@@@@@@@@@@@@@@@@@@",
"@@@@@@@@@@@@@@@                         +++++OOOOOOOOOO     @@@@@@@@@@@@@@@@@@@@",
"@@@@@@@@@@@@@@@     +++++     +++++++++++++++OOOOOooooo     @@@@@@@@@@@@@@@@@@@@",
"@@@@@@@@@@@@@@@     +++++     +++++++++++++++OOOOOooooo     @@@@@@@@@@@@@@@@@@@@",
"@@@@@@@@@@@@@@@     +++++     +++++++++++++++OOOOOooooo     @@@@@@@@@@@@@@@@@@@@",
"@@@@@@@@@@@@@@@     +++++     +++++++++++++++OOOOOooooo     @@@@@@@@@@@@@@@@@@@@",
"@@@@@@@@@@@@@@@     +++++     +++++++++++++++OOOOOooooo     @@@@@@@@@@@@@@@@@@@@",
"@@@@@@@@@@@@@@@     .....XXXXX..........oooooooooo          @@@@@@@@@@@@@@@@@@@@",
"@@@@@@@@@@@@@@@     .....XXXXX..........oooooooooo          @@@@@@@@@@@@@@@@@@@@",
"@@@@@@@@@@@@@@@     .....XXXXX..........oooooooooo          @@@@@@@@@@@@@@@@@@@@",
"@@@@@@@@@@@@@@@     .....XXXXX..........oooooooooo          @@@@@@@@@@@@@@@@@@@@",
"@@@@@@@@@@@----     .....XXXXX..........oooooooooo          @@@@@@@@@@@@@@@@@@@@",
"@@@@@@@@@@@@-+++-   oooooooooooooooooooo..........     @@@@@@@@@@@@@@@@@@@@@@@@@",
"@@@@@@@@@@@@-+PP+-  oooooooooooooooooooo..........     @@@@@@@@@@@@@@@@@@@@@@@@@",
"@@@@@@@@@@@@-+PPP+- oooooooooooooooooooo..........     @@@@@@@@@@@@@@@@@@@@@@@@@",
"@@@@@@@@@@@@@-+PPP+-oooooooooooooooooooo..........     @@@@@@@@@@@@@@@@@@@@@@@@@",
"@@@@@@@@@@@@@@-+PPP+---ooooooooooooooooo..........     @@@@@@@@@@@@@@@@@@@@@@@@@",
"@@@@@@@@@@@@@@@-+PPP+x-OOOOOOOOOOOOOOOOOoooooooooo     .....@@@@@@@@@@@@@@@@@@@@",
"@@@@@@@@@@@@@@@ -+ppx-OOOOOOOOOOOOOOOOOOoooooooooo     .....@@@@@@@@@@@@@@@@@@@@",
"@@@@@@@@@@@@@@@  -+x,x-OOOOOOOOOOOOOOOOOoooooooooo     .....@@@@@@@@@@@@@@@@@@@@",
"@@@@@@@@@@@@@@@  -x--,x-OOOOOOOOOOOOOOOOoooooooooo     .....@@@@@@@@@@@@@@@@@@@@",
"@@@@@@@@@@@@@@@  -- O---OOOOOOOOOOOOOOOOoooooooooo     .....@@@@@@@@@@@@@@@@@@@@",
"@@@@@@@@@@@@@@@     ooooo               oooooooooo     ..........@@@@@@@@@@@@@@@",
"@@@@@@@@@@@@@@@     ooooo               oooooooooo     ..........@@@@@@@@@@@@@@@",
"@@@@@@@@@@@@@@@     ooooo               oooooooooo     ..........@@@@@@@@@@@@@@@",
"@@@@@@@@@@@@@@@     ooooo               oooooooooo     ..........@@@@@@@@@@@@@@@",
"@@@@@@@@@@@@@@@     ooooo               oooooooooo     ..........@@@@@@@@@@@@@@@",
"@@@@@@@@@@@@@@@@@@@@     ooooo     .....     ooooo     ..........@@@@@@@@@@@@@@@",
"@@@@@@@@@@@@@@@@@@@@     ooooo     .....     ooooo     ..........@@@@@@@@@@@@@@@",
"@@@@@@@@@@@@@@@@@@@@     ooooo     .....     ooooo     ..........@@@@@@@@@@@@@@@",
"@@@@@@@@@@@@@@@@@@@@     ooooo     .....     ooooo     ..........@@@@@@@@@@@@@@@",
"@@@@@@@@@@@@@@@@@@@@     ooooo     .....     ooooo     ..........@@@@@@@@@@@@@@@",
"@@@@@@@@@@@@@@@@@@@@@@@@@          @@@@@@@@@@          @@@@@@@@@@@@@@@@@@@@@@@@@",
"@@@@@@@@@@@@@@@@@@@@@@@@@          @@@@@@@@@@          @@@@@@@@@@@@@@@@@@@@@@@@@",
"@@@@@@@@@@@@@@@@@@@@@@@@@          @@@@@@@@@@          @@@@@@@@@@@@@@@@@@@@@@@@@",
"@@@@@@@@@@@@@@@@@@@@@@@@@          @@@@@@@@@@          @@@@@@@@@@@@@@@@@@@@@@@@@",
"@@@@@@@@@@@@@@@@@@@@@@@@@          @@@@@@@@@@          @@@@@@@@@@@@@@@@@@@@@@@@@",
"@@@@@@@@@@@@@@@@@@@@@@@@@@@@@@@@@@@@@@@@@@@@@@@@@@@@@@@@@@@@@@@@@@@@@@@@@@@@@@@@",
"@@@@@@@@@@@@@@@@@@@@@@@@@@@@@@@@@@@@@@@@@@@@@@@@@@@@@@@@@@@@@@@@@@@@@@@@@@@@@@@@",
"@@@@@@@@@@@@@@@@@@@@@@@@@@@@@@@@@@@@@@@@@@@@@@@@@@@@@@@@@@@@@@@@@@@@@@@@@@@@@@@@",
"@@@@@@@@@@@@@@@@@@@@@@@@@@@@@@@@@@@@@@@@@@@@@@@@@@@@@@@@@@@@@@@@@@@@@@@@@@@@@@@@",
"@@@@@@@@@@@@@@@@@@@@@@@@@@@@@@@@@@@@@@@@@@@@@@@@@@@@@@@@@@@@@@@@@@@@@@@@@@@@@@@@",
"@@@@@@@@@@@@@@@@@@@@@@@@@@@@@@@@@@@@@@@@@@@@@@@@@@@@@@@@@@@@@@@@@@@@@@@@@@@@@@@@",
"@@@@@@@@@@@@@@@@@@@@@@@@@@@@@@@@@@@@@@@@@@@@@@@@@@@@@@@@@@@@@@@@@@@@@@@@@@@@@@@@",
"@@@@@@@@@@@@@@@@@@@@@@@@@@@@@@@@@@@@@@@@@@@@@@@@@@@@@@@@@@@@@@@@@@@@@@@@@@@@@@@@",
"@@@@@@@@@@@@@@@@@@@@@@@@@@@@@@@@@@@@@@@@@@@@@@@@@@@@@@@@@@@@@@@@@@@@@@@@@@@@@@@@",
"@@@@@@@@@@@@@@@@@@@@@@@@@@@@@@@@@@@@@@@@@@@@@@@@@@@@@@@@@@@@@@@@@@@@@@@@@@@@@@@@",
};