/* XPM */
static char *_645614048252[] = {
/* columns rows colors chars-per-pixel */
"80 80 12 1 ",
"  c #060608",
". c #AC3232",
"X c #DF7126",
"o c #847E87",
"O c #9BADB7",
"+ c white",
"@ c None",
"- c black",
", c #663931",
"x c #8F563B",
"p c #5FCDE4",
"P c #CBDBFC",
/* pixels */
"@@@@@@@@@@@@@@@@@@@@@@@@@               @@@@@@@@@@@@@@@@@@@@@@@@@@@@@@@@@@@@@@@@",
"@@@@@@@@@@@@@@@@@@@@@@@@@               @@@@@@@@@@@@@@@@@@@@@@@@@@@@@@@@@@@@@@@@",
"@@@@@@@@@@@@@@@@@@@@@@@@@               @@@@@@@@@@@@@@@@@@@@@@@@@@@@@@@@@@@@@@@@",
"@@@@@@@@@@@@@@@@@@@@@@@@@               @@@@@@@@@@@@@@@@@@@@@@@@@@@@@@@@@@@@@@@@",
"@@@@@@@@@@@@@@@@@@@@@@@@@               @@@@@@@@@@@@@@@@@@@@@@@@@@@@@@@@@@@@@@@@",
"@@@@@@@@@@@@@@@@@@@@@@@@@     ..........     @@@@@@@@@@@@@@@@@@@@@@@@@@@@@@@@@@@",
"@@@@@@@@@@@@@@@@@@@@@@@@@     ..........     @@@@@@@@@@@@@@@@@@@@@@@@@@@@@@@@@@@",
"@@@@@@@@@@@@@@@@@@@@@@@@@     ..........     @@@@@@@@@@@@@@@@@@@@@@@@@@@@@@@@@@@",
"@@@@@@@@@@@@@@@@@@@@@@@@@     ..........     @@@@@@@@@@@@@@@@@@@@@@@@@@@@@@@@@@@",
"@@@@@@@@@@@@@@@@@@@@@@@@@     ..........     @@@@@@@@@@@@@@@@@@@@@@@@@@@@@@@@@@@",
"@@@@@@@@@@@@@@@@@@@@@@@@@@@@@@     ooooo                    @@@@@@@@@@@@@@@@@@@@",
"@@@@@@@@@@@@@@@@@@@@@@@@@@@@@@     ooooo                    @@@@@@@@@@@@@@@@@@@@",
"@@@@@@@@@@@@@@@@@@@@@@@@@@@@@@     ooooo                    @@@@@@@@@@@@@@@@@@@@",
"@@@@@@@@@@@@@@@@@@@@@@@@@@@@@@     ooooo                    @@@@@@@@@@@@@@@@@@@@",
"@@@@@@@@@@@@@@@@@@@@@@@@@@@@@@     ooooo                    @@@@@@@@@@@@@@@@@@@@",
"@@@@@@@@@@@@@@@@@@@@@@@@@     ooooooooooOOOOOOOOOOOOOOOOOOOO     @@@@@@@@@@@@@@@",
"@@@@@@@@@@@@@@@@@@@@@@@@@     ooooooooooOOOOOOOOOOOOOOOOOOOO     @@@@@@@@@@@@@@@",
"@@@@@@@@@@@@@@@@@@@@@@@@@     ooooooooooOOOOOOOOOOOOOOOOOOOO     @@@@@@@@@@@@@@@",
"@@@@@@@@@@@@@@@@@@@@@@@@@     ooooooooooOOOOOOOOOOOOOOOOOOOO     @@@@@@@@@@@@@@@",
"@@@@@@@@@@@@@@@@@@@@@@@@@     ooooooooooOOOOOOOOOOOOOOOOOOOO     @@@@@@@@@@@@@@@",
"@@@@@@@@@@@@@@@@@@@@     oooooOOOOOOOOOOOOOOOOOOOOOOOOOOOOOO     @@@@@@@@@@@@@@@",
"@@@@@@@@@@@@@@@@@@@@     oooooOOOOOOOOOOOOOOOOOOOOOOOOOOOOOO     @@@@@@@@@@@@@@@",
"@@@@@@@@@@@@@@@@@@@@     oooooOOOOOOOOOOOOOOOOOOOOOOOOOOOOOO     @@@@@@@@@@@@@@@",
"@@@@@@@@@@@@@@@@@@@@     oooooOOOOOOOOOOOOOOOOOOOOOOOOOOOOOO     @@@@@@@@@@@@@@@",
"@@@@@@@@@@@@@@@@@@@@     oooooOOOOOOOOOOOOOOOOOOOOOOOOOOOOOO     @@@@@@@@@@@@@@@",
"@@@@@@@@@@@@@@@@@@@@     OOOOOOOOOO+++++++++++++++++++++++++     @@@@@@@@@@@@@@@",
"@@@@@@@@@@@@@@@@@@@@     OOOOOOOOOO+++++++++++++++++++++++++     @@@@@@@@@@@@@@@",
"@@@@@@@@@@@@@@@@@@@@     OOOOOOOOOO+++++++++++++++++++++++++     @@@@@@@@@@@@@@@",
"@@@@@@@@@@@@@@@@@@@@     OOOOOOOOOO+++++++++++++++++++++++++     @@@@@@@@@@@@@@@",
"@@@@@@@@@@@@@@@@@@@@     OOOOOOOOOO+++++++++++++++++++++++++     @@@@@@@@@@@@@@@",
"@@@@@@@@@@@@@@@@@@@@     OOOOOOOOOO+++++                         @@@@@@@@@@@@@@@",
"@@@@@@@@@@@@@@@@@@@@     OOOOOOOOOO+++++                         @@@@@@@@@@@@@@@",
"@@@@@@@@@@@@@@@@@@@@     OOOOOOOOOO+++++                         @@@@@@@@@@@@@@@",
"@@@@@@@@@@@@@@@@@@@@     OOOOOOOOOO+++++                         @@@@@@@@@@@@@@@",
"@@@@@@@@@@@@@@@@@@@@     OOOOOOOOOO+++++                         @@@@@@@@@@@@@@@",
"@@@@@@@@@@@@@@@@@@@@     oooooOOOOO+++++++++++++++     +++++     @@@@@@@@@@@@@@@",
"@@@@@@@@@@@@@@@@@@@@     oooooOOOOO+++++++++++++++     +++++     @@@@@@@@@@@@@@@",
"@@@@@@@@@@@@@@@@@@@@     oooooOOOOO+++++++++++++++     +++++     @@@@@@@@@@@@@@@",
"@@@@@@@@@@@@@@@@@@@@     oooooOOOOO+++++++++++++++     +++++     @@@@@@@@@@@@@@@",
"@@@@@@@@@@@@@@@@@@@@     oooooOOOOO+++++++++++++++     +++++     @@@@@@@@@@@@@@@",
"@@@@@@@@@@@@@@@@@@@@          oooooooooo..........XXXXX.....     @@@@@@@@@@@@@@@",
"@@@@@@@@@@@@@@@@@@@@          oooooooooo..........XXXXX.....     @@@@@@@@@@@@@@@",
"@@@@@@@@@@@@@@@@@@@@          oooooooooo..........XXXXX.....     @@@@@@@@@@@@@@@",
"@@@@@@@@@@@@@@@@@@@@          oooooooooo..........XXXXX.....     @@@@@@@@@@@@@@@",
"@@@@@@@@@@@@@@@@@@@@          oooooooooo..........XXXXX.....     ----@@@@@@@@@@@",
"@@@@@@@@@@@@@@@@@@@@@@@@@     ..........oooooooooooooooooooo   -+++-@@@@@@@@@@@@",
"@@@@@@@@@@@@@@@@@@@@@@@@@     ..........oooooooooooooooooooo  -+PP+-@@@@@@@@@@@@",
"@@@@@@@@@@@@@@@@@@@@@@@@@     ..........oooooooooooooooooooo -+PPP+-@@@@@@@@@@@@",
"@@@@@@@@@@@@@@@@@@@@@@@@@     ..........oooooooooooooooooooo-+PPP+-@@@@@@@@@@@@@",
"@@@@@@@@@@@@@@@@@@@@@@@@@     ..........ooooooooooooooooo---+PPP+-@@@@@@@@@@@@@@",
"@@@@@@@@@@@@@@@@@@@@.....     ooooooooooOOOOOOOOOOOOOOOOO-x+PPP+-@@@@@@@@@@@@@@@",
"@@@@@@@@@@@@@@@@@@@@.....     ooooooooooOOOOOOOOOOOOOOOOOO-xpp+- @@@@@@@@@@@@@@@",
"@@@@@@@@@@@@@@@@@@@@.....     ooooooooooOOOOOOOOOOOOOOOOO-x,x+-  @@@@@@@@@@@@@@@",
"@@@@@@@@@@@@@@@@@@@@.....     ooooooooooOOOOOOOOOOOOOOOO-x,--x-  @@@@@@@@@@@@@@@",
"@@@@@@@@@@@@@@@@@@@@.....     ooooooooooOOOOOOOOOOOOOOOO---O --  @@@@@@@@@@@@@@@",
"@@@@@@@@@@@@@@@..........     oooooooooo               ooooo     @@@@@@@@@@@@@@@",
"@@@@@@@@@@@@@@@..........     oooooooooo               ooooo     @@@@@@@@@@@@@@@",
"@@@@@@@@@@@@@@@..........     oooooooooo               ooooo     @@@@@@@@@@@@@@@",
"@@@@@@@@@@@@@@@..........     oooooooooo               ooooo     @@@@@@@@@@@@@@@",
"@@@@@@@@@@@@@@@..........     oooooooooo               ooooo     @@@@@@@@@@@@@@@",
"@@@@@@@@@@@@@@@..........     ooooo     .....     ooooo     @@@@@@@@@@@@@@@@@@@@",
"@@@@@@@@@@@@@@@..........     ooooo     .....     ooooo     @@@@@@@@@@@@@@@@@@@@",
"@@@@@@@@@@@@@@@..........     ooooo     .....     ooooo     @@@@@@@@@@@@@@@@@@@@",
"@@@@@@@@@@@@@@@..........     ooooo     .....     ooooo     @@@@@@@@@@@@@@@@@@@@",
"@@@@@@@@@@@@@@@..........     ooooo     .....     ooooo     @@@@@@@@@@@@@@@@@@@@",
"@@@@@@@@@@@@@@@@@@@@@@@@@          @@@@@@@@@@          @@@@@@@@@@@@@@@@@@@@@@@@@",
"@@@@@@@@@@@@@@@@@@@@@@@@@          @@@@@@@@@@          @@@@@@@@@@@@@@@@@@@@@@@@@",
"@@@@@@@@@@@@@@@@@@@@@@@@@          @@@@@@@@@@          @@@@@@@@@@@@@@@@@@@@@@@@@",
"@@@@@@@@@@@@@@@@@@@@@@@@@          @@@@@@@@@@          @@@@@@@@@@@@@@@@@@@@@@@@@",
"@@@@@@@@@@@@@@@@@@@@@@@@@          @@@@@@@@@@          @@@@@@@@@@@@@@@@@@@@@@@@@",
"@@@@@@@@@@@@@@@@@@@@@@@@@@@@@@@@@@@@@@@@@@@@@@@@@@@@@@@@@@@@@@@@@@@@@@@@@@@@@@@@",
"@@@@@@@@@@@@@@@@@@@@@@@@@@@@@@@@@@@@@@@@@@@@@@@@@@@@@@@@@@@@@@@@@@@@@@@@@@@@@@@@",
"@@@@@@@@@@@@@@@@@@@@@@@@@@@@@@@@@@@@@@@@@@@@@@@@@@@@@@@@@@@@@@@@@@@@@@@@@@@@@@@@",
"@@@@@@@@@@@@@@@@@@@@@@@@@@@@@@@@@@@@@@@@@@@@@@@@@@@@@@@@@@@@@@@@@@@@@@@@@@@@@@@@",
"@@@@@@@@@@@@@@@@@@@@@@@@@@@@@@@@@@@@@@@@@@@@@@@@@@@@@@@@@@@@@@@@@@@@@@@@@@@@@@@@",
"@@@@@@@@@@@@@@@@@@@@@@@@@@@@@@@@@@@@@@@@@@@@@@@@@@@@@@@@@@@@@@@@@@@@@@@@@@@@@@@@",
"@@@@@@@@@@@@@@@@@@@@@@@@@@@@@@@@@@@@@@@@@@@@@@@@@@@@@@@@@@@@@@@@@@@@@@@@@@@@@@@@",
"@@@@@@@@@@@@@@@@@@@@@@@@@@@@@@@@@@@@@@@@@@@@@@@@@@@@@@@@@@@@@@@@@@@@@@@@@@@@@@@@",
"@@@@@@@@@@@@@@@@@@@@@@@@@@@@@@@@@@@@@@@@@@@@@@@@@@@@@@@@@@@@@@@@@@@@@@@@@@@@@@@@",
"@@@@@@@@@@@@@@@@@@@@@@@@@@@@@@@@@@@@@@@@@@@@@@@@@@@@@@@@@@@@@@@@@@@@@@@@@@@@@@@@",
};
