/* XPM */
static char *_645443478602[] = {
/* columns rows colors chars-per-pixel */
"80 80 8 1 ",
"  c black",
". c #663931",
"X c #CC2E3E",
"o c #8F563B",
"O c #D95763",
"+ c gray83",
"@ c white",
"# c None",
/* pixels */
"################################################################################",
"################################################################################",
"################################################################################",
"################################################################################",
"################################################################################",
"################################################################################",
"################################################################################",
"################################################################################",
"################################################################################",
"################################################################################",
"##############################               ###################################",
"##############################               ###################################",
"##############################               ###################################",
"##############################               ###################################",
"##############################               ###################################",
"#########################     ooooooooooooooo     ##############################",
"#########################     ooooooooooooooo     ##############################",
"#########################     ooooooooooooooo     ##############################",
"#########################     ooooooooooooooo     ##############################",
"#########################     ooooooooooooooo     ##############################",
"####################     .....ooooooooooooooo.....     #########################",
"####################     .....ooooooooooooooo.....     #########################",
"####################     .....ooooooooooooooo.....     #########################",
"####################     .....ooooooooooooooo.....     #########################",
"####################     .....ooooooooooooooo.....     #########################",
"####################     +++++...............+++++     #########################",
"####################     +++++...............+++++     #########################",
"####################     +++++...............+++++     #########################",
"####################     +++++...............+++++     #########################",
"####################     +++++...............+++++     #########################",
"#########################     +++++++++++++++     ##############################",
"#########################     +++++++++++++++     ##############################",
"#########################     +++++++++++++++     ##############################",
"#########################     +++++++++++++++     ##############################",
"#########################     +++++++++++++++     ##############################",
"####################     +++++@@@@@XXXXXOOOOO+++++     #########################",
"####################     +++++@@@@@XXXXXOOOOO+++++     #########################",
"####################     +++++@@@@@XXXXXOOOOO+++++     #########################",
"####################     +++++@@@@@XXXXXOOOOO+++++     #########################",
"####################     +++++@@@@@XXXXXOOOOO+++++     #########################",
"####################     +++++@@@@@XXXXXOOOOO+++++     #########################",
"####################     +++++@@@@@XXXXXOOOOO+++++     #########################",
"####################     +++++@@@@@XXXXXOOOOO+++++     #########################",
"####################     +++++@@@@@XXXXXOOOOO+++++     #########################",
"####################     +++++@@@@@XXXXXOOOOO+++++     #########################",
"####################     +++++XXXXXXXXXXXXXXX+++++     #########################",
"####################     +++++XXXXXXXXXXXXXXX+++++     #########################",
"####################     +++++XXXXXXXXXXXXXXX+++++     #########################",
"####################     +++++XXXXXXXXXXXXXXX+++++     #########################",
"####################     +++++XXXXXXXXXXXXXXX+++++     #########################",
"#########################     +++++++++++++++     ##############################",
"#########################     +++++++++++++++     ##############################",
"#########################     +++++++++++++++     ##############################",
"#########################     +++++++++++++++     ##############################",
"#########################     +++++++++++++++     ##############################",
"##############################               ###################################",
"##############################               ###################################",
"##############################               ###################################",
"##############################               ###################################",
"##############################               ###################################",
"################################################################################",
"################################################################################",
"################################################################################",
"################################################################################",
"################################################################################",
"################################################################################",
"################################################################################",
"################################################################################",
"################################################################################",
"################################################################################",
"################################################################################",
"################################################################################",
"################################################################################",
"################################################################################",
"################################################################################",
"################################################################################",
"################################################################################",
"################################################################################",
"################################################################################",
"################################################################################"
};
