/* XPM */
static char *_645441196912[] = {
/* columns rows colors chars-per-pixel */
"80 80 6 1 ",
"  c black",
". c #33703B",
"X c #37773F",
"o c #3E8948",
"O c #62B76D",
"+ c None",
/* pixels */
"++++++++++++++++++++++++++++++++++++++++++++++++++++++++++++++++++++++++++++++++",
"++++++++++++++++++++++++++++++++++++++++++++++++++++++++++++++++++++++++++++++++",
"++++++++++++++++++++++++++++++++++++++++++++++++++++++++++++++++++++++++++++++++",
"++++++++++++++++++++++++++++++++++++++++++++++++++++++++++++++++++++++++++++++++",
"++++++++++++++++++++++++++++++++++++++++++++++++++++++++++++++++++++++++++++++++",
"++++++++++++++++++++++++++++++++++++++++++++++++++++++++++++++++++++++++++++++++",
"++++++++++++++++++++++++++++++++++++++++++++++++++++++++++++++++++++++++++++++++",
"++++++++++++++++++++++++++++++++++++++++++++++++++++++++++++++++++++++++++++++++",
"++++++++++++++++++++++++++++++++++++++++++++++++++++++++++++++++++++++++++++++++",
"++++++++++++++++++++++++++++++++++++++++++++++++++++++++++++++++++++++++++++++++",
"++++++++++++++++++++++++++++++++++++++++++++++++++++++++++++++++++++++++++++++++",
"++++++++++++++++++++++++++++++++++++++++++++++++++++++++++++++++++++++++++++++++",
"++++++++++++++++++++++++++++++++++++++++++++++++++++++++++++++++++++++++++++++++",
"++++++++++++++++++++++++++++++++++++++++++++++++++++++++++++++++++++++++++++++++",
"++++++++++++++++++++++++++++++++++++++++++++++++++++++++++++++++++++++++++++++++",
"+++++++++++++++++++++++++                              +++++++++++++++++++++++++",
"+++++++++++++++++++++++++                              +++++++++++++++++++++++++",
"+++++++++++++++++++++++++                              +++++++++++++++++++++++++",
"+++++++++++++++++++++++++                              +++++++++++++++++++++++++",
"+++++++++++++++++++++++++                              +++++++++++++++++++++++++",
"+++++++++++++++          .....oooooooooooooooooooo.....          +++++++++++++++",
"+++++++++++++++          .....oooooooooooooooooooo.....          +++++++++++++++",
"+++++++++++++++          .....oooooooooooooooooooo.....          +++++++++++++++",
"+++++++++++++++          .....oooooooooooooooooooo.....          +++++++++++++++",
"+++++++++++++++          .....oooooooooooooooooooo.....          +++++++++++++++",
"++++++++++     ..........oooooooooooooooooooooooooooooo..........     ++++++++++",
"++++++++++     ..........oooooooooooooooooooooooooooooo..........     ++++++++++",
"++++++++++     ..........oooooooooooooooooooooooooooooo..........     ++++++++++",
"++++++++++     ..........oooooooooooooooooooooooooooooo..........     ++++++++++",
"++++++++++     ..........oooooooooooooooooooooooooooooo..........     ++++++++++",
"+++++     .....oooooooooooooooooooooooooooooooooooooooooooooooooo.....     +++++",
"+++++     .....oooooooooooooooooooooooooooooooooooooooooooooooooo.....     +++++",
"+++++     .....oooooooooooooooooooooooooooooooooooooooooooooooooo.....     +++++",
"+++++     .....oooooooooooooooooooooooooooooooooooooooooooooooooo.....     +++++",
"+++++     .....oooooooooooooooooooooooooooooooooooooooooooooooooo.....     +++++",
"     .....ooooooooooOOOOOOOOOOoooooooooooooooooooooooooooooooooooooooo.....     ",
"     .....ooooooooooOOOOOOOOOOoooooooooooooooooooooooooooooooooooooooo.....     ",
"     .....ooooooooooOOOOOOOOOOoooooooooooooooooooooooooooooooooooooooo.....     ",
"     .....ooooooooooOOOOOOOOOOoooooooooooooooooooooooooooooooooooooooo.....     ",
"     .....ooooooooooOOOOOOOOOOoooooooooooooooooooooooooooooooooooooooo.....     ",
"     ooooooooooOOOOOOOOOOoooooooooooooooooooooooooooooooooooooooooooooooooo     ",
"     ooooooooooOOOOOOOOOOoooooooooooooooooooooooooooooooooooooooooooooooooo     ",
"     ooooooooooOOOOOOOOOOoooooooooooooooooooooooooooooooooooooooooooooooooo     ",
"     ooooooooooOOOOOOOOOOoooooooooooooooooooooooooooooooooooooooooooooooooo     ",
"     ooooooooooOOOOOOOOOOoooooooooooooooooooooooooooooooooooooooooooooooooo     ",
"     oooooooooo          XXXXXXXXXXXXXXXXXXXXXXXXXXXXXXXXXXXooooooooooooooo     ",
"     oooooooooo          XXXXXXXXXXXXXXXXXXXXXXXXXXXXXXXXXXXooooooooooooooo     ",
"     oooooooooo          XXXXXXXXXXXXXXXXXXXXXXXXXXXXXXXXXXXooooooooooooooo     ",
"     oooooooooo          XXXXXXXXXXXXXXXXXXXXXXXXXXXXXXXXXXXooooooooooooooo     ",
"     oooooooooo          XXXXXXXXXXXXXXXXXXXXXXXXXXXXXXXXXXXooooooooooooooo     ",
"     oooooXXXXX          XXXXXXXXXXXXXXX          XXXXXXXXXXXXXXXXXXXXooooo     ",
"     oooooXXXXX          XXXXXXXXXXXXXXX          XXXXXXXXXXXXXXXXXXXXooooo     ",
"     oooooXXXXX          XXXXXXXXXXXXXXX          XXXXXXXXXXXXXXXXXXXXooooo     ",
"     oooooXXXXX          XXXXXXXXXXXXXXX          XXXXXXXXXXXXXXXXXXXXooooo     ",
"     oooooXXXXX          XXXXXXXXXXXXXXX          XXXXXXXXXXXXXXXXXXXXooooo     ",
"     .....XXXXXXXXXXXXXXXXXXXXXXXXXXXXXX          XXXXXXXXXXXXXXXXXXXX.....     ",
"     .....XXXXXXXXXXXXXXXXXXXXXXXXXXXXXX          XXXXXXXXXXXXXXXXXXXX.....     ",
"     .....XXXXXXXXXXXXXXXXXXXXXXXXXXXXXX          XXXXXXXXXXXXXXXXXXXX.....     ",
"     .....XXXXXXXXXXXXXXXXXXXXXXXXXXXXXX          XXXXXXXXXXXXXXXXXXXX.....     ",
"     .....XXXXXXXXXXXXXXXXXXXXXXXXXXXXXX          XXXXXXXXXXXXXXXXXXXX.....     ",
"+++++     ..........XXXXXXXXXXXXXXXXXXXXXXXXXXXXXXXXXXXXXXX...........     +++++",
"+++++     ..........XXXXXXXXXXXXXXXXXXXXXXXXXXXXXXXXXXXXXXX...........     +++++",
"+++++     ..........XXXXXXXXXXXXXXXXXXXXXXXXXXXXXXXXXXXXXXX...........     +++++",
"+++++     ..........XXXXXXXXXXXXXXXXXXXXXXXXXXXXXXXXXXXXXXX...........     +++++",
"+++++     ..........XXXXXXXXXXXXXXXXXXXXXXXXXXXXXXXXXXXXXXX...........     +++++",
"++++++++++          .....XXXXXXXXXXXXXXXXXXXXXXXXXXXXXX.....          ++++++++++",
"++++++++++          .....XXXXXXXXXXXXXXXXXXXXXXXXXXXXXX.....          ++++++++++",
"++++++++++          .....XXXXXXXXXXXXXXXXXXXXXXXXXXXXXX.....          ++++++++++",
"++++++++++          .....XXXXXXXXXXXXXXXXXXXXXXXXXXXXXX.....          ++++++++++",
"++++++++++          .....XXXXXXXXXXXXXXXXXXXXXXXXXXXXXX.....          ++++++++++",
"+++++++++++++++++++++++++                              +++++++++++++++++++++++++",
"+++++++++++++++++++++++++                              +++++++++++++++++++++++++",
"+++++++++++++++++++++++++                              +++++++++++++++++++++++++",
"+++++++++++++++++++++++++                              +++++++++++++++++++++++++",
"+++++++++++++++++++++++++                              +++++++++++++++++++++++++",
"++++++++++++++++++++++++++++++++++++++++++++++++++++++++++++++++++++++++++++++++"
"++++++++++++++++++++++++++++++++++++++++++++++++++++++++++++++++++++++++++++++++"
"++++++++++++++++++++++++++++++++++++++++++++++++++++++++++++++++++++++++++++++++"
"++++++++++++++++++++++++++++++++++++++++++++++++++++++++++++++++++++++++++++++++"
"++++++++++++++++++++++++++++++++++++++++++++++++++++++++++++++++++++++++++++++++"
};